<svg width="296" height="312" viewBox="0 0 296 312" fill="none" xmlns="http://www.w3.org/2000/svg">
<rect width="296" height="312" rx="40" fill="#182A45"/>
<path d="M113.655 253C101.762 253 93.2434 252.112 88.1003 250.336C82.9571 248.721 79.4211 245.25 77.4924 239.921C75.7244 234.593 74.8405 225.632 74.8405 213.037V194.146C74.8405 187.687 74.6797 180.422 74.3583 172.348L57 161.692V150.308L74.3583 139.894C74.6797 131.498 74.8405 124.232 74.8405 118.096V98.9626C74.8405 86.5298 75.7244 77.6492 77.4924 72.3209C79.4211 66.831 82.9571 63.2788 88.1003 61.6642C93.2434 59.8881 101.762 59 113.655 59L114.62 69.8989H111.486C103.61 69.8989 98.1456 70.464 95.0918 71.5943C92.038 72.563 89.9486 75.0657 88.8235 79.1024C87.6984 83.139 87.1359 90.2434 87.1359 100.416V145.949L70.0187 156.121L87.1359 166.051V211.826C87.1359 221.999 87.6984 229.103 88.8235 233.14C89.9486 237.176 92.038 239.679 95.0918 240.648C98.1456 241.617 103.61 242.101 111.486 242.101H114.62L113.655 253Z" fill="#64FFDA"/>
<path d="M141.558 242.343V77.1648H154.094V242.343H141.558Z" fill="#64FFDA"/>
<path d="M180.621 242.101H183.514C191.551 242.101 197.015 241.617 199.908 240.648C202.962 239.679 205.051 237.176 206.176 233.14C207.302 229.103 207.864 221.999 207.864 211.826V166.051L224.981 156.121L207.864 145.949V100.416C207.864 90.2434 207.302 83.139 206.176 79.1024C205.051 75.0657 202.962 72.563 199.908 71.5943C196.854 70.464 191.39 69.8989 183.514 69.8989H180.621L181.586 59C193.479 59 201.998 59.8881 207.141 61.6642C212.284 63.2788 215.74 66.831 217.508 72.3209C219.436 77.6492 220.401 86.5298 220.401 98.9626L220.16 114.221V118.096C220.16 126.331 220.401 133.597 220.883 139.894L238 150.308V161.692L220.883 172.348C220.401 178.323 220.16 185.588 220.16 194.146V197.779L220.401 213.037C220.401 225.632 219.436 234.593 217.508 239.921C215.74 245.25 212.284 248.721 207.141 250.336C201.998 252.112 193.479 253 181.586 253L180.621 242.101Z" fill="#64FFDA"/>
</svg>
