<svg width="495" height="375" viewBox="0 0 495 375" fill="none" xmlns="http://www.w3.org/2000/svg">
<rect width="495" height="375" fill="#182A45"/>
<path d="M204.306 312C189.127 312 178.255 310.865 171.691 308.594C165.128 306.53 160.615 302.092 158.153 295.281C155.897 288.469 154.769 277.014 154.769 260.914V236.764C154.769 228.508 154.564 219.219 154.153 208.899L132 195.276V180.724L154.153 167.411C154.564 156.677 154.769 147.389 154.769 139.546V115.086C154.769 99.1927 155.897 87.8402 158.153 81.0287C160.615 74.0108 165.128 69.4698 171.691 67.4057C178.255 65.1352 189.127 64 204.306 64L205.537 77.9326H201.537C191.486 77.9326 184.512 78.655 180.614 80.0999C176.717 81.3383 174.05 84.5377 172.615 89.6979C171.179 94.8581 170.461 103.94 170.461 116.944V175.151L148.615 188.155L170.461 200.849V259.366C170.461 272.37 171.179 281.452 172.615 286.612C174.05 291.772 176.717 294.971 180.614 296.21C184.512 297.448 191.486 298.067 201.537 298.067H205.537L204.306 312Z" fill="#64FFDA"/>
<path d="M239.916 298.377V87.221H255.916V298.377H239.916Z" fill="#64FFDA"/>
<path d="M289.771 298.067H293.463C303.719 298.067 310.693 297.448 314.386 296.21C318.283 294.971 320.95 291.772 322.385 286.612C323.821 281.452 324.539 272.37 324.539 259.366V200.849L346.385 188.155L324.539 175.151V116.944C324.539 103.94 323.821 94.8581 322.385 89.6979C320.95 84.5377 318.283 81.3383 314.386 80.0999C310.488 78.655 303.514 77.9326 293.463 77.9326H289.771L291.002 64C306.181 64 317.052 65.1352 323.616 67.4057C330.18 69.4698 334.59 74.0108 336.847 81.0287C339.308 87.8402 340.539 99.1927 340.539 115.086L340.231 134.592V139.546C340.231 150.072 340.539 159.361 341.154 167.411L363 180.724V195.276L341.154 208.899C340.539 216.536 340.231 225.824 340.231 236.764V241.408L340.539 260.914C340.539 277.014 339.308 288.469 336.847 295.281C334.59 302.092 330.18 306.53 323.616 308.594C317.052 310.865 306.181 312 291.002 312L289.771 298.067Z" fill="#64FFDA"/>
</svg>
